<?xml version="1.0" encoding="UTF-8" standalone="no"?><!DOCTYPE svg PUBLIC "-//W3C//DTD SVG 1.1//EN" "http://www.w3.org/Graphics/SVG/1.1/DTD/svg11.dtd"><svg width="100%" height="100%" viewBox="0 0 1072 226" version="1.1" xmlns="http://www.w3.org/2000/svg" xmlns:xlink="http://www.w3.org/1999/xlink" xml:space="preserve" xmlns:serif="http://www.serif.com/" style="fill-rule:evenodd;clip-rule:evenodd;stroke-linejoin:round;stroke-miterlimit:2;"><path d="M44.299,223.593c0,0 -41.795,-0.135 -44.21,-86.638c-0.252,-9.016 -0.373,-20.47 5.575,-27.409c5.947,-6.939 11.277,-12.243 23.668,-8.278l0,33.704c0,0 0.142,-0.382 0,-59.974c-0.03,-12.808 31.69,-10.574 31.722,-3.965c0.137,27.465 0,32.049 0,32.049c0,0 0.161,-71.924 0.161,-86.465c0,-21.509 31.952,-20.46 31.952,1.049c0,14.739 -1.947,85.128 -1.947,85.128c0,0 0.645,-21.362 0.7,-30.576c0.068,-11.636 26.972,-7.816 28.117,1.293c0.848,6.745 0,28.253 0,28.253l0.372,-19.588c0,0 -1.211,-4.087 14.492,-0.199c16.719,4.139 16.357,19.423 16.685,28.126c1.113,29.599 1.13,58.879 -2.254,73.019c-7.39,30.88 -5.176,30.886 -20.736,37.466c-18.149,7.675 -84.297,3.005 -84.297,3.005Z" style="fill:#fff;"/><path d="M61.099,82.325c0.048,-22.425 0.116,-56.237 0.116,-65.708c0,-21.509 31.952,-20.46 31.952,1.049c0,8.019 -0.576,32.514 -1.103,53.185c-0.093,0.43 -0.142,0.886 -0.144,1.367c-0.02,3.371 -0.119,8.367 -0.237,13.346c-0.267,10.143 -0.463,17.23 -0.463,17.23c0,0 0.26,-8.592 0.463,-17.23l0.153,-5.819l0.228,-8.894c2.108,-9.944 26.876,-6.072 27.973,2.66c0.237,1.879 0.341,4.904 0.369,8.29c-0.04,0.204 -0.003,0.352 0.002,0.373l0.001,0.024l-0.372,19.566c0,0 0.429,-10.861 0.372,-19.566l0,-0.022l-0.001,-0.002l-0.001,-0.276l-0.001,-0.097c0.172,-0.914 1.848,-2.956 14.495,0.176c16.719,4.139 16.357,19.423 16.685,28.126c1.113,29.599 1.13,58.879 -2.254,73.019c-7.39,30.88 -5.176,30.886 -20.736,37.466c-18.149,7.675 -84.297,3.005 -84.297,3.005c0,0 -41.795,-0.135 -44.21,-86.638c-0.252,-9.016 -0.373,-20.47 5.575,-27.409c5.947,-6.939 11.277,-12.243 23.668,-8.278l0,33.704c0,0 0.142,-0.382 0,-59.974c-0.03,-12.808 31.69,-10.574 31.722,-3.965c0.022,4.301 0.036,8.041 0.045,11.292l-0.045,20.757c0,0 0.097,-3.261 0.045,-20.757Zm27.33,-11.902c0.524,-20.569 1.093,-44.794 1.093,-52.757c0,-16.608 -24.662,-17.657 -24.662,-1.049c0,9.472 -0.068,43.287 -0.117,65.72c0.053,17.578 -0.045,20.853 -0.045,20.853c-0.06,1.993 -1.709,3.568 -3.702,3.536c-1.993,-0.032 -3.591,-1.659 -3.586,-3.652l0.044,-20.762l-0.005,-2.035l-0.037,-8.605c-0.269,-0.182 -0.741,-0.484 -1.128,-0.653c-1.743,-0.759 -4.143,-1.264 -6.753,-1.505c-4.049,-0.372 -8.605,-0.097 -12.143,1.164c-2.383,0.849 -4.416,2.018 -4.411,4.311c0.142,59.601 0,59.983 0,59.983c0,2.013 -1.632,3.645 -3.645,3.645c-2.013,0 -3.644,-1.632 -3.644,-3.645l0,-30.926c-2.902,-0.654 -5.283,-0.642 -7.346,-0.066c-4.101,1.147 -6.85,4.367 -9.911,7.938c-2.537,2.959 -3.689,6.917 -4.27,11.06c-0.653,4.654 -0.55,9.557 -0.429,13.875c2.296,82.242 40.579,83.095 40.579,83.095c0.082,0 0.163,0.003 0.245,0.009c0,0 32.169,2.274 57.65,1.024c10.476,-0.514 19.787,-1.558 24.971,-3.75c4.238,-1.792 7.054,-2.989 9.059,-4.625c2.071,-1.69 3.06,-3.917 4.192,-7.816c1.397,-4.814 2.792,-11.789 5.359,-22.516c3.339,-13.949 3.254,-42.835 2.156,-72.034c-0.284,-7.551 0.588,-21.134 -13.918,-24.725c-4.663,-1.155 -8.245,-1.393 -9.982,-1.431c-0.004,8.426 -0.364,17.823 -0.364,17.823c-0.078,1.997 -1.75,3.558 -3.748,3.5c-1.998,-0.059 -3.576,-1.715 -3.538,-3.713l0.366,-19.285c-0.025,-0.261 -0.032,-0.586 0.012,-0.956c-0.032,-3.059 -0.133,-5.765 -0.35,-7.487c-0.114,-0.905 -0.913,-1.571 -1.841,-2.225c-2.353,-1.659 -5.878,-2.705 -9.342,-3.027c-2.77,-0.257 -5.521,-0.069 -7.574,0.846c-0.923,0.411 -1.681,0.994 -1.97,1.873l-0.214,8.385l-0.153,5.828c-0.204,8.655 -0.463,17.258 -0.463,17.258c-0.061,2.01 -1.739,3.591 -3.749,3.533c-2.01,-0.058 -3.594,-1.734 -3.538,-3.744c0,0 0.196,-7.078 0.462,-17.211c0.118,-4.959 0.216,-9.93 0.236,-13.285c0.004,-0.616 0.056,-1.207 0.154,-1.774Z" style="fill:#343a40;"/><g transform="matrix(1.10012,0,0,1.10012,-977.152,-507.451)"><text x="1049.95px" y="662.859px" style="font-family:'Cousine-Bold', 'Cousine', monospace;font-weight:700;font-size:300px;fill:#fff;">B<tspan x="1196.98px 1344.01px " y="662.859px 662.859px ">BC</tspan></text><text x="1491.04px" y="662.859px" style="font-family:'Cousine-Bold', 'Cousine', monospace;font-weight:700;font-size:240.623px;fill:#fff;">O<tspan x="1608.97px 1726.89px " y="662.859px 662.859px ">DE</tspan></text></g></svg>